<?xml version="1.0" standalone="no"?>
<!DOCTYPE svg PUBLIC "-//W3C//DTD SVG 20010904//EN"
 "http://www.w3.org/TR/2001/REC-SVG-20010904/DTD/svg10.dtd">
<svg version="1.0" xmlns="http://www.w3.org/2000/svg"
 width="204.000000pt" height="204.000000pt" viewBox="0 0 204.000000 204.000000"
 preserveAspectRatio="xMidYMid meet">
<metadata>
Created by potrace 1.14, written by Peter Selinger 2001-2017
</metadata>
<g transform="translate(0.000000,204.000000) scale(0.100000,-0.100000)"
fill="#000000" stroke="none">
<path d="M445 1876 c-81 -20 -146 -57 -210 -121 -166 -165 -183 -418 -47 -690
126 -252 365 -498 739 -759 l81 -57 84 57 c586 399 886 836 823 1200 -31 175
-133 293 -315 365 -22 9 -72 14 -135 13 -85 0 -110 -5 -165 -27 -106 -44 -212
-135 -267 -228 -10 -16 -20 -29 -23 -29 -3 0 -17 19 -32 43 -118 185 -337 281
-533 233z"/>
</g>
</svg>
